<svg width="145" height="78" viewBox="0 0 145 78" fill="none" xmlns="http://www.w3.org/2000/svg">
<path d="M13.7565 24.095C13.6449 25.1374 13.4962 31.7267 13.4962 34.8538V37.9437H14.4629C14.9834 37.9437 16.0244 37.9064 16.768 37.8692C17.8834 37.7948 18.218 37.7575 18.7013 37.5342C19.8539 37.013 20.6347 35.8217 21.118 33.8859L21.3783 32.8807L22.2334 32.8435L23.0885 32.8063V39.0605V45.3147L22.2334 45.2775L21.3783 45.2403L21.1552 44.2351C20.709 42.3737 19.8167 41.0336 18.7385 40.5496C18.2552 40.3262 16.9911 40.2146 14.6116 40.1401L13.4962 40.1029V42.4482C13.4962 45.0169 13.6449 48.4791 13.8308 50.3777C14.0911 53.0208 14.7603 54.4727 15.9501 54.9939C16.1731 55.1056 16.9167 55.2545 17.5488 55.3662C18.218 55.4778 18.8129 55.5895 18.9244 55.6267C19.1847 55.7757 19.1847 57.1158 18.9244 57.2275C18.7385 57.302 0.334686 57.302 0.148788 57.2275C0.0744293 57.1903 7.02824e-05 56.9297 7.02824e-05 56.4457C7.02824e-05 55.5895 -0.0371092 55.6267 1.59879 55.2917C2.86289 55.0683 3.34622 54.8077 3.90391 54.0632C4.98212 52.6113 5.24238 49.8565 5.24238 38.4276C5.24238 27.7061 5.05648 25.4724 3.90391 23.7972C3.3834 23.0527 2.56545 22.6804 1.11545 22.4942L0.0372497 22.3453L7.02824e-05 21.4891L0.0372497 20.7446L0.371865 20.6701C0.557762 20.6329 7.17571 20.6329 15.0949 20.6329L29.4834 20.6701L29.5577 21.0796C29.5949 21.303 29.6693 23.6483 29.7065 26.3287L29.7808 31.131L29.0372 31.3544C27.9219 31.6894 27.9219 31.6894 27.4385 30.3865C26.2116 27.1105 24.7988 25.2491 22.8654 24.2812C21.527 23.6111 20.9321 23.5366 17.1398 23.5366H13.868L13.7565 24.095ZM144.256 45.6498C143.364 43.9001 141.765 42.7088 138.382 41.2941C135.631 40.1401 134.255 39.3583 133.4 38.4276C132.731 37.6831 132.508 37.0874 132.582 35.9334C132.656 34.891 132.879 34.2954 133.549 33.588C134.367 32.6946 135.519 32.3968 136.895 32.6574C139.163 33.1413 140.576 34.7049 141.84 37.9809C142.286 39.1722 142.323 39.2094 143.141 38.9116L143.662 38.7254V37.3853C143.662 36.6407 143.624 35.0771 143.587 33.9231L143.513 31.8011L143.141 31.6522C141.096 30.796 137.155 30.2376 134.59 30.4609C131.69 30.7215 129.533 31.6522 127.897 33.3647C126.262 35.0771 125.518 37.0502 125.667 39.3955C125.778 41.3314 126.336 42.746 127.563 43.9745C128.678 45.1286 129.608 45.6498 132.285 46.6921C136.597 48.3674 137.75 49.3725 137.75 51.4573C137.75 53.207 136.821 54.5099 135.11 55.1056C134.515 55.3289 132.954 55.3289 132.136 55.1056C129.979 54.5471 128.344 52.6858 126.931 49.2236L126.559 48.3302L126.15 48.3674C125.927 48.3674 125.592 48.4418 125.444 48.5163L125.146 48.6652L125.183 50.1915C125.183 51.0105 125.258 52.7602 125.258 54.1004L125.332 56.483L125.815 56.7063C126.782 57.1158 129.756 57.7859 131.615 57.9721C131.838 58.0093 133.103 58.0093 134.441 57.9721C136.746 57.9349 136.895 57.9349 138.047 57.637C141.431 56.7436 143.624 54.845 144.628 51.9784C144.926 51.085 144.963 50.8244 145 49.5214C145 47.6973 144.851 46.8038 144.256 45.6498ZM123.622 40.9219C123.696 41.5547 123.733 42.2993 123.696 42.5971L123.659 43.1183L115.963 43.1555L108.267 43.1928L108.304 44.0862C108.378 46.2082 108.824 48.0696 109.68 49.7076C110.051 50.4521 110.349 50.8616 111.092 51.6062C112.765 53.2814 114.401 53.9515 117.041 53.9515C118.937 53.9515 120.313 53.5792 121.726 52.6485C122.135 52.3879 122.544 52.1646 122.618 52.1646C122.841 52.1646 123.324 52.7975 123.324 53.0953C123.324 53.542 121.837 55.0311 120.387 56.0362C119.197 56.8553 117.301 57.5626 115.665 57.8604C114.513 58.0465 111.947 58.0465 110.795 57.8604C105.627 56.9297 101.946 53.2442 100.719 47.8462C100.571 47.1389 100.496 46.3571 100.459 44.868C100.385 42.4854 100.608 41.0336 101.203 39.1722C102.392 35.6356 104.474 33.1413 107.56 31.6522C110.795 30.0887 115.219 29.977 118.082 31.3916C121.242 32.9924 123.138 36.2312 123.622 40.9219ZM115.814 40.7357L115.74 39.4328C115.517 34.891 114.401 32.3968 112.579 32.3968C110.609 32.3968 109.047 34.9282 108.415 39.1349C108.341 39.6561 108.267 40.2518 108.267 40.5124V40.9219L110.237 40.8846C111.315 40.8846 112.988 40.8102 113.992 40.773L115.814 40.7357ZM70.1949 30.3493C68.968 30.3493 68.3359 30.4982 67.3693 30.9449C65.5847 31.7639 64.2462 33.1041 63.0565 35.2633L62.6847 35.9334L62.7218 34.7421C62.759 34.072 62.7962 32.8435 62.8334 31.9873L62.8706 30.4609H62.6103C62.2757 30.4609 51.977 32.5084 51.6423 32.6574C51.4565 32.7318 51.4193 32.8435 51.4193 33.3275C51.4193 33.8486 51.4565 33.9231 51.6423 33.9603C51.7539 33.9976 52.2372 34.072 52.6834 34.1837C53.6129 34.3698 53.8731 34.5187 54.2449 35.0027C54.9513 35.9334 55.1 37.5342 55.0629 44.4213C55.0629 50.0426 54.9513 52.8347 54.6911 53.7281C54.3565 54.8077 53.7988 55.3662 52.7949 55.5523C52.4603 55.6267 52.0513 55.7012 51.8282 55.7384L51.4565 55.8129L51.4193 56.5202C51.3821 57.0414 51.4193 57.2648 51.5308 57.3392C51.6052 57.3764 55.1372 57.4137 59.3757 57.4137L67.0718 57.3764L67.109 56.5574C67.109 56.1107 67.109 55.7384 67.0718 55.7384C66.477 55.7384 64.6552 55.4778 64.3577 55.3662C63.5026 54.9939 63.0565 54.2121 62.8706 52.6485C62.6475 50.7872 62.5359 46.171 62.5731 42.3737C62.6475 38.5393 62.6475 38.5393 62.8706 38.2787C63.4282 37.6831 64.8411 37.1991 66.1052 37.1991C67.109 37.1991 68.1872 37.4597 69.3026 37.9809C69.8231 38.2415 70.3436 38.4276 70.418 38.3904C70.5667 38.3532 73.0949 31.6522 73.0949 31.3172C73.0949 30.796 71.6449 30.3493 70.1949 30.3493ZM51.2334 47.5856C50.1552 52.6113 47.0321 56.1479 42.459 57.4881C41.9757 57.637 41.1949 57.7859 40.7488 57.8604C39.8193 57.9721 36.9565 57.9721 36.0642 57.8604C33.536 57.4881 31.3424 56.4085 29.6321 54.7333C28.2193 53.3559 27.327 51.7923 26.6577 49.7076C25.6167 46.4315 25.6167 42.1876 26.6577 38.986C27.6616 35.8589 29.9667 33.1413 32.7552 31.7639C36.6218 29.8281 42.0872 29.9397 45.6936 32.0617C48.9283 33.9603 50.8988 37.348 51.4193 42.0015C51.6052 43.3789 51.4936 46.3571 51.2334 47.5856ZM43.4257 44.5702C43.4257 38.9116 42.5706 35.3377 40.6744 33.4391C39.8936 32.6574 39.3359 32.3968 38.3321 32.3968C36.1013 32.3968 34.6885 34.7421 34.1308 39.2839C33.8706 41.3686 33.8706 46.3943 34.1308 48.2185C34.9116 53.9143 36.9565 56.6319 39.8193 55.7757C40.5629 55.5523 41.4552 54.6961 41.9385 53.7654C42.9795 51.904 43.4257 49.0747 43.4257 44.5702ZM98.1167 39.7678C98.3769 40.9963 98.4885 44.0862 98.3026 45.6498C98.1539 46.9527 97.7077 48.7397 97.2616 49.8937C95.5513 54.2493 91.8705 57.0786 86.9628 57.8232C85.8475 58.0093 82.3154 58.0093 80.7911 57.8604C79.75 57.7487 76.5898 57.2275 75.5116 56.9669L74.7308 56.7808L74.8052 52.6858C74.9539 42.8577 74.9539 37.4969 74.8795 32.2851C74.8052 27.1849 74.768 26.6265 74.5821 25.882C74.3218 24.914 73.9872 24.2439 73.5411 23.9461C73.3552 23.8344 72.909 23.6483 72.5372 23.5738C71.2359 23.276 71.3103 23.3133 71.2731 22.7548C71.2359 22.4198 71.2731 22.1964 71.3847 22.122C71.4962 22.0475 82.1295 20 82.4641 20C82.5757 20 82.5757 21.3774 82.5385 26.0681C82.5013 29.3813 82.5013 32.1362 82.5385 32.1362C82.5757 32.1362 82.9475 31.95 83.3936 31.7639C84.7321 31.131 85.959 30.8704 87.7808 30.796C88.9705 30.7588 89.5282 30.796 90.1603 30.9077C94.1013 31.7267 97.0757 35.0027 98.1167 39.7678ZM90.1231 40.6613C89.5654 37.3108 88.3385 35.1144 86.5167 34.2209C85.7731 33.8486 85.6616 33.8114 84.7693 33.8114C84.1372 33.8114 83.5795 33.8859 83.1334 33.9976L82.427 34.1837L82.3898 37.9809C82.3154 42.8577 82.5013 55.1056 82.6128 55.4406C82.6872 55.664 82.7987 55.7012 83.2077 55.7384C84.2116 55.8129 84.3603 55.8129 84.918 55.7012C85.6616 55.5523 86.2564 55.2545 86.8885 54.6961C88.4872 53.2814 89.6769 50.3404 90.1231 46.6921C90.3834 45.2775 90.3462 41.8898 90.1231 40.6613Z" fill="url(#paint0_linear)"/>
<defs>
<linearGradient id="paint0_linear" x1="13.0128" y1="20" x2="45.3481" y2="92.4972" gradientUnits="userSpaceOnUse">
<stop stop-color="#FFD268"/>
<stop offset="0.505208" stop-color="#F8BA7D"/>
<stop offset="1" stop-color="#D5B4A9"/>
</linearGradient>
</defs>
</svg>