<svg width="133" height="78" viewBox="0 0 133 78" fill="none" xmlns="http://www.w3.org/2000/svg">
<path fill-rule="evenodd" clip-rule="evenodd" d="M0 22V54.3649L32.327 22H0Z" fill="#92CFAE"/>
<path fill-rule="evenodd" clip-rule="evenodd" d="M2.30859 56.6764H34.6356V24.3115L2.30859 56.6764Z" fill="#2A8288"/>
<path fill-rule="evenodd" clip-rule="evenodd" d="M52.7946 38.5866C56.5533 38.5866 58.5514 36.7438 58.5514 33.3006V33.1061C58.5514 29.4204 56.4579 27.9655 52.7946 27.9655H48.8931V38.5866H52.7946ZM41.2334 22H52.9848C61.2631 22 65.9735 25.7342 65.9735 33.0581V33.2516C65.9735 40.575 60.978 44.0672 53.2224 44.0672H48.8931V56.6767H41.2334V22Z" fill="#172126"/>
<path fill-rule="evenodd" clip-rule="evenodd" d="M81.2224 50.7111C84.9102 50.7111 86.7776 49.0623 86.7776 45.9095V45.7161C86.7776 42.6118 84.9102 40.9144 81.0358 40.9144H76.7411V50.7111H81.2224ZM81.5027 56.6767H69.2725V22H91.0253V28.111H76.7881L76.7411 35.3854H81.7358C89.4381 35.3854 94.0125 38.8291 94.0125 45.764V45.9585C94.0125 52.7479 89.7648 56.6767 81.5027 56.6767Z" fill="#172126"/>
<path fill-rule="evenodd" clip-rule="evenodd" d="M99.5781 22.0484H107.621V36.9654L120.032 22H128.571L114.521 38.4182L129.266 56.6767H119.883L107.621 41.1302V56.6767H99.5781V22.0484Z" fill="#172126"/>
</svg>